<svg xmlns="http://www.w3.org/2000/svg" viewBox="0 0 33.12 31.88"><defs><style>.cls-1{fill:#bfbfc2;}.cls-2{fill:#fff;}.cls-3{fill:#afafb2;}</style></defs><g id="Camada_2" data-name="Camada 2"><g id="Camada_1-2" data-name="Camada 1"><path class="cls-1" d="M5.08,7.82l-.24.63-.25.62L4.1,10.32c-.17.42-.32.84-.47,1.26-.07.22-.14.43-.19.64a3.11,3.11,0,0,0-.14.66,4.73,4.73,0,0,1,.2-1.34c.12-.43.27-.86.43-1.28s.34-.83.54-1.24.39-.81.61-1.2"/><path class="cls-1" d="M5,22.54a14.44,14.44,0,0,1-1-2.06,15.4,15.4,0,0,1-.68-2.19A14.68,14.68,0,0,1,3.06,16c0-.38,0-.76,0-1.15s0-.76,0-1.14l0-.05,1-.27.51-.14c.17,0,.35-.09.51-.15-.32.14-.67.24-1,.36s-.69.21-1,.3l0,0c0,.77,0,1.52.05,2.28,0,.38.07.76.12,1.13s.11.75.18,1.12a18.83,18.83,0,0,0,.63,2.19A20.26,20.26,0,0,0,5,22.54"/><path class="cls-1" d="M12.53,28.65a12.67,12.67,0,0,1-2.1-.93A14.47,14.47,0,0,1,8.5,26.47a14.79,14.79,0,0,1-1.73-1.53A10.36,10.36,0,0,1,6,24.09a6.26,6.26,0,0,1-.67-.95v-.06l1.5-.88c.49-.3,1-.59,1.48-.9-.48.33-1,.63-1.46.94l-1.47.92,0-.06a10.52,10.52,0,0,0,1.47,1.73A19,19,0,0,0,8.6,26.34a17.41,17.41,0,0,0,1.89,1.28,18.55,18.55,0,0,0,2,1"/><path class="cls-1" d="M6.38,6.18l-.2.76c-.07.25-.14.5-.2.75a13.41,13.41,0,0,0-.27,1.54,8.9,8.9,0,0,0,0,1.55c0,.26,0,.52,0,.78l.06.78c-.1-.51-.19-1-.25-1.55a7,7,0,0,1,0-1.58,8,8,0,0,1,.31-1.55,15.32,15.32,0,0,1,.53-1.48"/><path class="cls-1" d="M8.72,20.29a13.08,13.08,0,0,1-1-1.68,14.61,14.61,0,0,1-.82-1.8c-.24-.62-.44-1.25-.62-1.89A18,18,0,0,1,5.85,13l.05-.09,1.77-.5,1.77-.52c-.57.23-1.15.42-1.74.61L6,13,6,13a16,16,0,0,0,.41,1.92c.17.63.36,1.26.59,1.87a19.72,19.72,0,0,0,1.72,3.54"/><path class="cls-1" d="M13.87,26.26a17.13,17.13,0,0,1-1.41-1.14,17.32,17.32,0,0,1-1.28-1.29A17.53,17.53,0,0,1,10,22.42a11.59,11.59,0,0,1-.95-1.54l0-.06,1.54-.94,1.54-.95-1.51,1-1.52,1v-.06a16.83,16.83,0,0,0,1,1.49c.36.48.74.94,1.14,1.39s.81.89,1.23,1.31.87.83,1.33,1.23"/><path class="cls-1" d="M17.15,29.46a8.46,8.46,0,0,1-1,0,10.24,10.24,0,0,1-2-.28,6.88,6.88,0,0,1-1-.32l0-.06c.13-.25.26-.5.4-.75s.28-.5.44-.74c-.14.25-.27.51-.4.76l-.36.77,0-.06c.32.1.65.17,1,.25l1,.17,1,.14,1,.09"/><path class="cls-1" d="M18.29,29.16c-.35-.16-.7-.32-1-.5s-.68-.36-1-.55-.65-.39-1-.61a6.26,6.26,0,0,1-.91-.72v-.07c.26-.41.54-.81.84-1.21a9.11,9.11,0,0,1,1-1.1,6.3,6.3,0,0,0-.48.55c-.15.19-.29.39-.43.59-.28.4-.55.81-.8,1.23V26.7a4.83,4.83,0,0,0,.45.34l.47.32,1,.61,1,.59c.33.19.65.39,1,.6"/><path class="cls-1" d="M10,11c-.11-.38-.2-.77-.29-1.16s-.18-.77-.26-1.16S9.31,7.9,9.26,7.5a9.25,9.25,0,0,1-.1-1.2l.07-.07L10.59,6a10.42,10.42,0,0,0,1.32-.38,5,5,0,0,1-.63.27c-.22.08-.44.15-.67.21-.45.12-.9.22-1.35.31l.06-.08c0,.38.06.78.11,1.17s.11.78.18,1.17L9.8,9.82c.07.4.14.79.2,1.18"/><path class="cls-1" d="M12.52,17.94c-.27-.48-.53-1-.77-1.48s-.48-1-.68-1.53-.4-1-.57-1.58a11.5,11.5,0,0,1-.39-1.64l.05-.08,1-.39,1-.39,1-.41c.32-.14.64-.29.95-.46a8.34,8.34,0,0,1-.92.52c-.32.16-.64.3-1,.45l-1,.42-1,.4,0-.08a11.47,11.47,0,0,0,.4,1.61c.16.53.34,1,.54,1.57s.4,1,.62,1.55.45,1,.69,1.52"/><path class="cls-1" d="M16.2,23.34a14.35,14.35,0,0,1-1-1.05,12.53,12.53,0,0,1-.91-1.16,6.42,6.42,0,0,1-.42-.6c-.14-.2-.27-.41-.39-.62a12.41,12.41,0,0,1-.69-1.3l0-.07,2-1.23,1-.61c.34-.21.67-.41,1-.63-.64.45-1.31.88-2,1.3s-1.33.85-2,1.26l0-.07q.33.64.72,1.26l.39.62.41.6q.42.6.87,1.17c.3.38.61.76.92,1.13"/><path class="cls-1" d="M19.7,27.05a7.88,7.88,0,0,1-.83-.7c-.14-.12-.27-.25-.4-.38l-.38-.39c-.25-.26-.5-.53-.73-.81s-.48-.55-.7-.84v-.09c.43-.41.87-.81,1.34-1.18a8.66,8.66,0,0,1,1.49-1,8.64,8.64,0,0,0-1.44,1,16.35,16.35,0,0,0-1.29,1.21v-.09l.72.81.73.81.73.8c.25.27.5.53.76.78"/><path class="cls-1" d="M14.37,9.05c-.34-.6-.66-1.21-1-1.82S12.77,6,12.47,5.37l0-.1c.43-.31.85-.64,1.26-1,.21-.17.4-.34.6-.53a3,3,0,0,0,.52-.6,2.56,2.56,0,0,1-.47.66c-.18.2-.37.38-.57.57a15.27,15.27,0,0,1-1.24,1l0-.11q.47.93.9,1.86c.29.63.58,1.26.85,1.89"/><path class="cls-1" d="M17.25,15.05c-.26-.43-.5-.86-.73-1.3l-.68-1.33c-.22-.44-.43-.89-.65-1.33s-.42-.9-.62-1.36l0-.06c.72-.44,1.43-.89,2.13-1.34q.53-.33,1.05-.69a9.08,9.08,0,0,0,1-.76,4.72,4.72,0,0,1-.48.41l-.5.38-1,.71q-1,.7-2.1,1.38l0-.07c.22.44.45.88.67,1.33s.44.88.65,1.33.43.89.64,1.35Z"/><path class="cls-1" d="M19.87,20.66c-.22-.4-.43-.81-.63-1.21s-.41-.82-.6-1.23-.4-.83-.58-1.24-.39-.83-.56-1.25l0-.08,2.54-1.55,2.54-1.55c-.83.55-1.66,1.08-2.5,1.62l-2.52,1.59,0-.08c.21.4.4.82.6,1.23s.39.82.57,1.24.38.83.56,1.25.36.84.53,1.26"/><path class="cls-1" d="M22.09,25.3a10.18,10.18,0,0,1-.54-1c-.17-.33-.34-.66-.49-1l-.45-1-.42-1,0-.1c.71-.34,1.44-.64,2.18-.91A11.4,11.4,0,0,1,23.53,20a5.75,5.75,0,0,1,1.16-.2,5.54,5.54,0,0,0-1.14.26c-.38.11-.75.25-1.11.39-.73.28-1.45.62-2.15,1l0-.1.44,1,.43,1,.44,1c.15.34.29.68.45,1"/><path class="cls-1" d="M18.88,6c-.3-.29-.62-.55-.92-.83l-.91-.82-.91-.84-.88-.85,0-.08c.13-.22.25-.44.37-.66s.12-.23.17-.34a2.21,2.21,0,0,0,.16-.35,4.41,4.41,0,0,1-.26.72q-.15.35-.33.69V2.53c.31.26.62.54.92.82l.9.84c.3.28.59.57.88.86l.43.44a4.6,4.6,0,0,1,.41.47"/><path class="cls-1" d="M23,11.54c-.26-.45-.53-.9-.81-1.33s-.57-.87-.87-1.29-.61-.84-.92-1.25c-.16-.21-.33-.41-.49-.61s-.33-.4-.5-.59V6.39l1.2-1.19.58-.61c.19-.21.38-.41.56-.64a15,15,0,0,1-1.1,1.29c-.38.42-.77.82-1.16,1.23V6.39c.18.19.36.38.53.58s.34.39.5.6c.33.4.64.82.93,1.25s.58.87.84,1.33A14,14,0,0,1,23,11.54"/><path class="cls-1" d="M25.33,19a28.81,28.81,0,0,0-.81-3.45c-.18-.57-.36-1.13-.57-1.68-.1-.28-.21-.55-.32-.83s-.22-.54-.35-.81l0-.07,1.63-1,.81-.5c.27-.17.54-.34.8-.53-.25.2-.52.38-.78.56l-.8.52c-.53.35-1.07.69-1.61,1l0-.07a14.77,14.77,0,0,1,.73,1.63,17.67,17.67,0,0,1,.57,1.69,16.76,16.76,0,0,1,.66,3.5"/><path class="cls-1" d="M28.48,19.36c-.5,0-1,.09-1.49.15l-.75.11-.74.12.07-.08c.06.4.13.81.18,1.22s.07.82.08,1.24,0,.82,0,1.23l0,1.24,0,0c.49.05,1,.1,1.45.17-.24,0-.49,0-.73-.06l-.72-.06,0,0,0-1.24-.05-1.23c0-.41-.05-.82-.1-1.22s-.11-.81-.17-1.22l.07-.09c.25,0,.5-.08.74-.1l.75-.08.76-.05h.75"/><path class="cls-1" d="M21.64,3c-.24-.16-.49-.28-.73-.41l-.73-.4c-.49-.27-1-.53-1.45-.84A10,10,0,0,1,20.26,2a7.6,7.6,0,0,1,.72.43,3.74,3.74,0,0,1,.66.53"/><path class="cls-1" d="M26.85,9.26c-.33-.54-.66-1.08-1-1.6s-.71-1-1.11-1.52-.79-1-1.22-1.43c-.21-.23-.43-.45-.66-.67l-.34-.32-.18-.16-.09-.07,0,0,0,0h0s0-.05,0,0h0l.44-.49.2-.25A1.56,1.56,0,0,0,23,2.37a1.12,1.12,0,0,1-.16.28l-.19.27c-.14.17-.28.33-.43.49h0s0,0,0,0h0l0,0,.05,0,.1.07.18.15a3.47,3.47,0,0,1,.37.3c.24.21.47.42.69.64A15.52,15.52,0,0,1,24.87,6,18.63,18.63,0,0,1,26,7.59a17.9,17.9,0,0,1,.9,1.67"/><path class="cls-1" d="M29.48,8.38l-1.14.75-1.14.74,0-.09a12.71,12.71,0,0,1,.94,2.1,16.81,16.81,0,0,1,.61,2.21,21.68,21.68,0,0,1,.36,2.26,21.93,21.93,0,0,1,.1,2.29h.89l.46,0a2.28,2.28,0,0,1,.45,0,2.28,2.28,0,0,0-.45,0H29.21v0c0-.38,0-.76-.08-1.14s-.07-.75-.12-1.13c-.1-.75-.22-1.5-.39-2.24-.08-.38-.17-.74-.28-1.11s-.21-.73-.33-1.09a13.15,13.15,0,0,0-.89-2.08l0-.09,1.17-.69Z"/><path class="cls-1" d="M29.14,19.26a6.64,6.64,0,0,1,0,1.26,10.33,10.33,0,0,1-.19,1.26q-.14.62-.33,1.23l-.21.6c-.08.19-.15.39-.24.58l.16-.61c.06-.2.11-.41.16-.61.1-.41.2-.82.29-1.23s.16-.82.23-1.23q.06-.32.09-.63c0-.2.05-.41.07-.62"/><path class="cls-1" d="M19.06,29.35a6.71,6.71,0,0,1,1.32-2,7.13,7.13,0,0,1,1.94-1.42,7,7,0,0,1,2.32-.63,8.15,8.15,0,0,1,1.21,0,8,8,0,0,1,1.18.17,9.9,9.9,0,0,0-2.37,0,7,7,0,0,0-2.26.66,7.55,7.55,0,0,0-2.7,2.25,7.06,7.06,0,0,0-.64,1"/><path class="cls-1" d="M15,1.32a17.16,17.16,0,0,0-2.24.59,16.27,16.27,0,0,0-2.12.87A14.52,14.52,0,0,0,8.71,4,10,10,0,0,0,7,5.51v0H7l0,0,.11,0,.22,0,.44,0,.91,0H7.85l-.45,0a.91.91,0,0,1-.23,0l-.11,0L7,5.55H7l0,0v0a7.13,7.13,0,0,1,.79-.86,10.69,10.69,0,0,1,.89-.75,12.54,12.54,0,0,1,2-1.22,13,13,0,0,1,2.17-.84A13.45,13.45,0,0,1,15,1.32"/><path class="cls-2" d="M8.54,29.61c-.26.28-.52.55-.76.85-.12.14-.24.29-.35.44a2.46,2.46,0,0,0-.28.46c0,.07,0,.16,0,.17h.1a1.93,1.93,0,0,0,.5-.1,8.31,8.31,0,0,0,1-.41c.69-.3,1.36-.65,2-1s1.33-.72,2-1.1c1.31-.75,2.63-1.5,3.92-2.29s2.59-1.58,3.87-2.39,2.56-1.63,3.82-2.47,2.5-1.7,3.73-2.59c.61-.44,1.21-.9,1.81-1.37a21.57,21.57,0,0,0,1.7-1.47,8.28,8.28,0,0,0,.75-.82,2.71,2.71,0,0,0,.3-.45,1.25,1.25,0,0,0,.16-.47.45.45,0,0,0-.18-.4,1.45,1.45,0,0,0-.49-.21,5.19,5.19,0,0,0-1.12-.1,4.9,4.9,0,0,1,1.15,0,1.44,1.44,0,0,1,.58.18.73.73,0,0,1,.33.57,1.37,1.37,0,0,1-.14.61,4.44,4.44,0,0,1-.28.53,8.23,8.23,0,0,1-.72.93,28.56,28.56,0,0,1-3.39,3.12l-.9.71-.92.69-1.85,1.34Q23,23.86,21.1,25.08c-1.3.8-2.6,1.6-3.93,2.36s-2.66,1.49-4,2.17A38.43,38.43,0,0,1,9,31.48a9,9,0,0,1-1.12.33,2.08,2.08,0,0,1-.62.06A.67.67,0,0,1,7,31.82a.37.37,0,0,1-.18-.19.4.4,0,0,1,0-.22.59.59,0,0,1,.06-.16,2.23,2.23,0,0,1,.36-.48c.13-.15.27-.28.41-.42s.57-.5.86-.74"/><path class="cls-3" d="M2,11.61c-.22.33-.44.67-.64,1a11.88,11.88,0,0,0-.58,1,4.13,4.13,0,0,0-.37,1.09.85.85,0,0,0,0,.48.44.44,0,0,0,.3.24,1.68,1.68,0,0,0,.51,0,3.47,3.47,0,0,0,.55-.08,9,9,0,0,0,1.12-.33c.73-.26,1.46-.57,2.18-.91,1.42-.68,2.83-1.42,4.21-2.21s2.76-1.58,4.11-2.43,2.71-1.68,4-2.56,2.64-1.78,3.93-2.72c.64-.46,1.27-.95,1.89-1.44A14.54,14.54,0,0,0,25,1.23a2.83,2.83,0,0,0,.32-.45A.69.69,0,0,0,25.4.57a.15.15,0,0,0,0-.12.33.33,0,0,0-.17-.09,1.09,1.09,0,0,0-.26,0,3.79,3.79,0,0,0-.58,0q-.59.08-1.17.21c-.39.08-.78.18-1.16.28A13.64,13.64,0,0,1,24.33.09,3.09,3.09,0,0,1,25,0a1.94,1.94,0,0,1,.33,0,.64.64,0,0,1,.36.16.6.6,0,0,1,.14.21.86.86,0,0,1,0,.22,1,1,0,0,1-.1.36,3.44,3.44,0,0,1-.33.56,9,9,0,0,1-.81.93c-.28.29-.57.57-.87.85-.59.55-1.21,1.06-1.84,1.57s-1.26,1-1.91,1.47-1.3.94-2,1.4c-1.33.91-2.67,1.78-4,2.63a64.22,64.22,0,0,1-8.53,4.5,22.28,22.28,0,0,1-2.29.83A9.63,9.63,0,0,1,1.91,16a4.48,4.48,0,0,1-.64,0,2,2,0,0,1-.67-.1,1,1,0,0,1-.33-.21.77.77,0,0,1-.22-.34,1.28,1.28,0,0,1,0-.7,4.36,4.36,0,0,1,.51-1.14A13.61,13.61,0,0,1,2,11.61"/><path class="cls-3" d="M2.25,21.24c-.25.38-.5.76-.73,1.15a8.4,8.4,0,0,0-.6,1.2,2.74,2.74,0,0,0-.18.62.73.73,0,0,0,.08.52.65.65,0,0,0,.46.18,2.62,2.62,0,0,0,.62,0,8.3,8.3,0,0,0,1.27-.36c.42-.15.83-.32,1.24-.5.82-.36,1.63-.75,2.43-1.16q2.4-1.26,4.73-2.64c1.55-.92,3.1-1.87,4.62-2.84s3-2,4.54-3,3-2.05,4.44-3.11c.73-.53,1.45-1.08,2.15-1.63a26.56,26.56,0,0,0,2-1.76,6.1,6.1,0,0,0,.86-1,1.66,1.66,0,0,0,.13-.27.28.28,0,0,0,0-.2.28.28,0,0,0-.18-.11,1.25,1.25,0,0,0-.3,0,6,6,0,0,0-1.32.16c-.44.09-.88.2-1.32.32.42-.17.85-.32,1.29-.46A5.89,5.89,0,0,1,29.88,6a2.48,2.48,0,0,1,.38,0,1,1,0,0,1,.2.08.42.42,0,0,1,.18.17.44.44,0,0,1,.07.24,1.5,1.5,0,0,1,0,.22,1.6,1.6,0,0,1-.15.35,6.41,6.41,0,0,1-.83,1.14,36.26,36.26,0,0,1-4.08,3.67c-.71.57-1.43,1.12-2.17,1.66s-1.47,1.07-2.21,1.6c-1.49,1-3,2.05-4.54,3a92.52,92.52,0,0,1-9.53,5.34c-.83.38-1.67.75-2.53,1.07-.43.16-.86.31-1.31.44a8.78,8.78,0,0,1-1.37.3,3.66,3.66,0,0,1-.74,0,1.47,1.47,0,0,1-.38-.11.85.85,0,0,1-.34-.29.9.9,0,0,1-.13-.41,1.58,1.58,0,0,1,0-.38,3,3,0,0,1,.25-.67,12.72,12.72,0,0,1,1.58-2.24"/></g></g></svg>